<?xml version="1.0" encoding="UTF-8"?><svg id="Layer_2" xmlns="http://www.w3.org/2000/svg" viewBox="0 0 1359 181.28"><defs><style>.cls-1{fill:#ed1c24;font-family:SegoeUIVariable-SemiboldText, 'Segoe UI Variable';font-size:59.34px;font-variation-settings:'wght' 600, 'opsz' 10;font-weight:600;}.cls-2,.cls-3{fill:#fff;}.cls-4{letter-spacing:-.03em;}.cls-5{letter-spacing:0em;}.cls-6{letter-spacing:-.03em;}.cls-6,.cls-7{stroke:#000;stroke-miterlimit:10;stroke-width:17px;}.cls-8{letter-spacing:-.03em;}.cls-9{font-size:113.39px;}.cls-9,.cls-3{font-family:DazzleUnicase-Bold, 'Dazzle Unicase';font-weight:700;}.cls-7{letter-spacing:-.03em;}.cls-10{letter-spacing:-.03em;}.cls-3{font-size:113px;}.cls-11{letter-spacing:-.07em;}.cls-12{letter-spacing:-.04em;}.cls-13{fill:red;}</style></defs><g id="Layer_1-2"><text class="cls-9" transform="translate(0 103.75)"><tspan x="0" y="0">Neu</tspan><tspan class="cls-5" x="272.71" y="0">r</tspan><tspan x="349.36" y="0">ofib</tspan><tspan class="cls-5" x="625.81" y="0">r</tspan><tspan x="702.46" y="0">om</tspan><tspan class="cls-11" x="928.34" y="0">a</tspan><tspan class="cls-12" x="1008.73" y="0">t</tspan><tspan class="cls-6" x="1066.79" y="0">o</tspan><tspan class="cls-7" x="1166.91" y="0">s</tspan><tspan class="cls-6" x="1210.46" y="0">e</tspan><tspan x="1310.69" y="0">s</tspan></text><text class="cls-1" transform="translate(9 163.29)"><tspan x="0" y="0">Association Neurofibromatoses et </tspan><tspan class="cls-10" x="930.98" y="0">R</tspan><tspan x="966.19" y="0">ecklinghausen</tspan></text><text class="cls-3" transform="translate(1066.93 103.75)"><tspan class="cls-4" x="0" y="0">o</tspan><tspan class="cls-8" x="99.78" y="0">s</tspan><tspan x="143.17" y="0">e</tspan></text><rect x="1248.08" y="69.84" width="28.11" height="7.03"/><rect class="cls-2" x="1232.73" y="45.38" width="59.59" height="4.41"/></g><g id="Layer_2-2"><path d="m1205.87,15.33v12.4c-2.62-.51-4.17.07-4.97.5-10.68,5.67.16,43.25-9.5,59.46-2.92,4.89-7.1,8.08-7.1,8.08-3.97,3.03-8.01,4.35-10.71,4.97v-14.98c.96-.18,2.81-.62,4.69-1.86,14.7-9.66-2.35-45.79,13.84-61.93,2.23-2.22,6.29-5.26,13.75-6.63Z"/><path d="m1220.64,56.83c-.05,3.85.38,11.74,4.85,20.26,3.68,7.02,8.57,11.51,11.94,14.07,2.64,2,10.94,8.11,23.24,8.58,3.14.12,10.68.03,18.87-3.97,6.19-3.03,10.03-6.96,11.86-8.87,3.36-3.5,5.58-6.94,7.01-9.51h-11.92c-1.15,1.73-3.05,4.17-5.96,6.46-4.05,3.18-7.92,4.37-9.93,4.97-7.16,2.12-13.15,1.2-14.88.89-8.25-1.48-13.81-5.89-16.41-8.34-10.05-9.48-10.41-22.26-10.43-24.83-2.75.1-5.49.2-8.24.3Z"/><path d="m1264.82,15.78c-3.36-.23-19.3-.9-31.96,11.51-12.57,12.32-12.31,28.15-12.22,30.74h83c.05-2.83.04-17.88-11.84-29.99-10.4-10.6-23.1-12-26.98-12.26Zm-2.68,7.21c18.36,0,33.25,12.89,33.25,28.78h-66.5c0-15.9,14.89-28.78,33.25-28.78Z"/><path d="m1118.11,15.33c-22.92,0-41.5,18.58-41.5,41.5s18.58,41.5,41.5,41.5,41.5-18.58,41.5-41.5-18.58-41.5-41.5-41.5Zm0,73.88c-18.05,0-32.67-14.63-32.67-32.67s14.63-32.67,32.67-32.67,32.67,14.63,32.67,32.67-14.63,32.67-32.67,32.67Z"/></g><g id="Layer_3"><ellipse class="cls-13" cx="1118.91" cy="56.83" rx="20.3" ry="21.11"/><path d="m1118.91,35.72c-11.21,0-20.3,6.11-20.3,13.66h40.61c0-7.54-9.09-13.66-20.3-13.66Z"/><circle cx="1118.79" cy="49.38" r="5.38"/><circle cx="1102.48" cy="59.61" r="5.38"/><circle cx="1135.11" cy="59.61" r="5.38"/><circle cx="1108.79" cy="74.6" r="5.38"/><circle cx="1118.79" cy="64.99" r="5.38"/><circle cx="1129.55" cy="74.1" r="5.38"/><circle cx="1107.86" cy="35.07" r="5.38"/><circle cx="1129.55" cy="35.07" r="5.38"/></g></svg>