<?xml version="1.0" encoding="utf-8"?>
<!-- Generator: Adobe Illustrator 27.1.1, SVG Export Plug-In . SVG Version: 6.00 Build 0)  -->
<svg version="1.1" id="Layer_2_00000051364637961107529830000010089962036106684288_"
	 xmlns="http://www.w3.org/2000/svg" xmlns:xlink="http://www.w3.org/1999/xlink" x="0px" y="0px" viewBox="0 0 1141.8 157.7"
	 style="enable-background:new 0 0 1141.8 157.7;" xml:space="preserve">
<style type="text/css">
	.st0{fill:#FF0000;}
	.st1{stroke:#000000;stroke-width:22;stroke-miterlimit:10;}
	.st2{fill:#FFFFFF;stroke:#FFFFFF;stroke-width:4;stroke-miterlimit:10;}
	.st3{stroke:#FFFFFF;stroke-width:6;stroke-miterlimit:10;}
</style>
<g>
	<path class="st0" d="M0.4,145.9l13.2-35.1h6.6l13.1,35.1h-6.4l-3-8.5H9.8l-2.9,8.5H0.4z M11.2,132.6h11l-4.9-14
		c-0.1-0.4-0.2-0.7-0.3-1.1c-0.1-0.4-0.2-0.8-0.2-1.4h-0.1c-0.1,0.5-0.2,0.9-0.3,1.3c-0.1,0.4-0.2,0.7-0.3,1.1L11.2,132.6z"/>
	<path class="st0" d="M35,143.9l2.5-4c1,0.7,2,1.2,3.1,1.7c1.1,0.4,2.3,0.6,3.6,0.6c1.4,0,2.5-0.3,3.3-0.8s1.2-1.3,1.2-2.3
		c0-0.8-0.3-1.5-1-2c-0.6-0.5-1.7-1-3.3-1.4c-3.1-0.7-5.3-1.7-6.6-2.9s-1.9-2.8-1.9-4.8c0-2.3,0.9-4.1,2.6-5.6
		c1.8-1.4,4.1-2.2,6.9-2.2c1.4,0,2.8,0.2,4.1,0.6c1.3,0.4,2.5,1,3.8,1.8l-2.3,3.9c-1.1-0.7-2.1-1.2-3-1.5s-1.8-0.4-2.8-0.4
		c-1.3,0-2.4,0.2-3.1,0.7c-0.7,0.5-1.1,1.2-1.1,2.1c0,0.9,0.4,1.6,1.1,2.1s2,0.9,3.8,1.3c2.7,0.7,4.7,1.6,6,2.8s1.9,2.9,1.9,4.9
		c0,2.4-0.9,4.4-2.7,5.8c-1.8,1.4-4.2,2.2-7.2,2.2c-1.6,0-3.2-0.2-4.7-0.6C37.8,145.4,36.3,144.7,35,143.9z"/>
	<path class="st0" d="M56.6,143.9l2.5-4c1,0.7,2,1.2,3.1,1.7c1.1,0.4,2.3,0.6,3.6,0.6c1.4,0,2.5-0.3,3.3-0.8s1.2-1.3,1.2-2.3
		c0-0.8-0.3-1.5-1-2c-0.6-0.5-1.7-1-3.3-1.4c-3.1-0.7-5.3-1.7-6.6-2.9s-1.9-2.8-1.9-4.8c0-2.3,0.9-4.1,2.6-5.6
		c1.8-1.4,4.1-2.2,6.9-2.2c1.4,0,2.8,0.2,4.1,0.6c1.3,0.4,2.5,1,3.8,1.8l-2.3,3.9c-1.1-0.7-2.1-1.2-3-1.5s-1.8-0.4-2.8-0.4
		c-1.3,0-2.4,0.2-3.1,0.7c-0.7,0.5-1.1,1.2-1.1,2.1c0,0.9,0.4,1.6,1.1,2.1s2,0.9,3.8,1.3c2.7,0.7,4.7,1.6,6,2.8s1.9,2.9,1.9,4.9
		c0,2.4-0.9,4.4-2.7,5.8c-1.8,1.4-4.2,2.2-7.2,2.2c-1.6,0-3.2-0.2-4.7-0.6C59.4,145.4,58,144.7,56.6,143.9z"/>
	<path class="st0" d="M91.8,146.5c-3.9,0-7-1.2-9.3-3.5s-3.4-5.5-3.4-9.4c0-4.2,1.2-7.4,3.6-9.8c2.4-2.4,5.6-3.5,9.7-3.5
		c3.9,0,7,1.1,9.2,3.5s3.3,5.5,3.3,9.4c0,4.1-1.2,7.3-3.5,9.7C99,145.3,95.8,146.5,91.8,146.5z M92.1,141.9c2.3,0,4-0.7,5.2-2.2
		s1.8-3.6,1.8-6.4c0-2.8-0.6-4.9-1.8-6.3s-2.9-2.2-5.2-2.2c-2.2,0-4,0.8-5.3,2.3s-1.9,3.7-1.9,6.4s0.6,4.8,1.9,6.3
		C88,141.2,89.8,141.9,92.1,141.9z"/>
	<path class="st0" d="M129.4,144.3c-1.2,0.8-2.5,1.3-3.7,1.6s-2.6,0.5-4,0.5c-3.9,0-6.9-1.1-9.2-3.4c-2.3-2.3-3.5-5.3-3.5-9.2
		c0-4.2,1.2-7.5,3.6-10c2.4-2.5,5.6-3.7,9.7-3.7c1.4,0,2.7,0.2,3.9,0.5s2.4,0.8,3.6,1.5l-2.2,4c-0.8-0.5-1.7-0.8-2.5-1
		s-1.7-0.3-2.7-0.3c-2.4,0-4.3,0.8-5.6,2.4c-1.3,1.6-2,3.7-2,6.3c0,2.7,0.7,4.9,2.1,6.3c1.4,1.5,3.2,2.2,5.3,2.2
		c0.7,0,1.4-0.1,2.3-0.4c0.8-0.2,1.7-0.6,2.6-1.1L129.4,144.3z"/>
	<path class="st0" d="M137.1,115.9c-1,0-1.9-0.3-2.6-1s-1-1.5-1-2.5s0.3-1.8,1-2.5c0.7-0.7,1.6-1,2.6-1c1.1,0,1.9,0.3,2.6,1
		s1,1.5,1,2.5s-0.3,1.8-1,2.5C139.1,115.6,138.2,115.9,137.1,115.9z M139.9,145.9h-5.7v-25.1h5.7V145.9z"/>
	<path class="st0" d="M166.5,145.9H161v-3.8h-0.1c-0.8,1.5-1.9,2.5-3.2,3.3c-1.3,0.7-2.7,1.1-4.3,1.1c-2.3,0-4.2-0.7-5.7-2
		s-2.3-3.2-2.3-5.5c0-2.2,0.8-4,2.3-5.5c1.5-1.4,3.7-2.4,6.7-2.8l6.6-0.9v-0.5c0-1.7-0.4-2.9-1.3-3.7s-2.1-1.2-3.6-1.2
		c-1.2,0-2.4,0.2-3.6,0.6s-2.4,1.1-3.6,2l-2.5-3.4c1.5-1.2,3.1-2,4.8-2.6c1.6-0.6,3.4-0.8,5.4-0.8c3.4,0,5.9,0.8,7.5,2.5
		s2.5,4.1,2.5,7.5L166.5,145.9L166.5,145.9z M161,135.7v-2.1l-5.4,0.7c-1.6,0.2-2.8,0.7-3.6,1.3s-1.2,1.5-1.2,2.8
		c0,1.2,0.4,2.2,1.1,2.9c0.8,0.7,1.7,1,2.9,1c1.8,0,3.3-0.6,4.4-1.8C160.5,139.1,161,137.6,161,135.7z"/>
	<path class="st0" d="M187.2,145.5c-0.7,0.3-1.5,0.5-2.3,0.7c-0.8,0.1-1.7,0.2-2.6,0.2c-2.3,0-4.1-0.6-5.4-1.8
		c-1.2-1.2-1.9-3.1-1.9-5.5v-13.8h-4.1v-4.5h4.2v-6.1l5.7-1.7v7.8h6v4.5h-6v13.4c0,1.2,0.2,2.1,0.7,2.6s1.1,0.8,2.1,0.8
		c0.5,0,0.9-0.1,1.3-0.2s0.8-0.2,1.1-0.4L187.2,145.5z"/>
	<path class="st0" d="M194.6,115.9c-1,0-1.9-0.3-2.6-1s-1-1.5-1-2.5s0.3-1.8,1-2.5s1.6-1,2.6-1c1.1,0,1.9,0.3,2.6,1s1,1.5,1,2.5
		s-0.3,1.8-1,2.5S195.6,115.9,194.6,115.9z M197.4,145.9h-5.7v-25.1h5.7V145.9z"/>
	<path class="st0" d="M215.9,146.5c-3.9,0-7-1.2-9.3-3.5s-3.4-5.5-3.4-9.4c0-4.2,1.2-7.4,3.6-9.8c2.4-2.4,5.6-3.5,9.7-3.5
		c3.9,0,7,1.1,9.2,3.5s3.3,5.5,3.3,9.4c0,4.1-1.2,7.3-3.5,9.7C223.1,145.3,219.9,146.5,215.9,146.5z M216.2,141.9
		c2.3,0,4-0.7,5.2-2.2s1.8-3.6,1.8-6.4c0-2.8-0.6-4.9-1.8-6.3s-2.9-2.2-5.2-2.2c-2.2,0-4,0.8-5.3,2.3s-1.9,3.7-1.9,6.4
		s0.6,4.8,1.9,6.3C212.2,141.2,213.9,141.9,216.2,141.9z"/>
	<path class="st0" d="M257.1,145.9h-5.7v-14.1c0-2.3-0.4-4.1-1.3-5.3c-0.8-1.2-2.1-1.8-3.8-1.8c-1.7,0-3.1,0.6-4.2,1.9
		c-1.1,1.3-1.7,2.9-1.7,4.9v14.3h-5.7v-25.1h5.7v4.1h0.1c0.9-1.6,2.1-2.7,3.4-3.5c1.4-0.8,2.9-1.2,4.7-1.2c2.7,0,4.8,0.9,6.3,2.6
		c1.4,1.7,2.1,4.3,2.1,7.7v15.5H257.1z"/>
	<path class="st0" d="M308.3,145.9h-6.4l-16.4-25.3c-0.3-0.5-0.6-0.9-0.8-1.4c-0.2-0.4-0.4-0.8-0.6-1.2h-0.2c0.1,0.5,0.1,1.2,0.1,2
		c0,0.9,0,1.9,0,3.2v22.6h-5.6v-35.1h6.8l16,24.8c0.3,0.5,0.6,1,0.9,1.4s0.5,0.8,0.7,1.2h0.1c-0.1-0.5-0.1-1.1-0.2-2
		c0-0.8,0-1.9,0-3.1v-22.3h5.6V145.9z"/>
	<path class="st0" d="M337.6,134.8h-17.1c0.1,2.4,0.8,4.2,2.1,5.4c1.3,1.2,3.1,1.9,5.3,1.9c0.9,0,2-0.2,3.2-0.6s2.4-1,3.5-1.8
		l2.6,3.6c-1.6,1.1-3.1,1.9-4.7,2.5c-1.6,0.5-3.4,0.8-5.3,0.8c-3.9,0-6.9-1.1-9.1-3.4c-2.2-2.2-3.3-5.4-3.3-9.4s1.1-7.3,3.4-9.8
		c2.2-2.5,5.1-3.7,8.6-3.7c3.4,0,6,1.1,8,3.2c1.9,2.1,2.9,5.1,2.9,9v2.3H337.6z M332.1,130.9c0-2.2-0.5-3.8-1.4-4.9
		c-0.9-1.1-2.3-1.6-4-1.6c-1.6,0-3,0.6-4.1,1.8s-1.8,2.7-2.1,4.7H332.1z"/>
	<path class="st0" d="M364.9,145.9h-5.7V142h-0.1c-0.9,1.5-2,2.6-3.3,3.4s-2.8,1.1-4.5,1.1c-2.9,0-5.2-0.9-6.6-2.6
		c-1.5-1.8-2.2-4.4-2.2-8v-15.1h5.7v14.4c0,2.2,0.4,3.9,1.3,5s2.2,1.7,3.9,1.7c1.7,0,3.1-0.6,4.2-1.8s1.6-2.9,1.6-4.9v-14.4h5.7
		V145.9z"/>
	<path class="st0" d="M386.2,125.6c-0.3-0.1-0.6-0.1-0.9-0.2c-0.3,0-0.6-0.1-1-0.1c-2,0-3.6,0.8-4.7,2.3s-1.6,3.5-1.6,5.9v12.4h-5.7
		v-25.1h5.7v4.8h0.1c0.6-1.7,1.5-3,2.6-3.9s2.5-1.3,4-1.3c0.4,0,0.8,0,1.2,0.1c0.4,0,0.7,0.1,1,0.2L386.2,125.6z"/>
	<path class="st0" d="M402,146.5c-3.9,0-7-1.2-9.3-3.5s-3.4-5.5-3.4-9.4c0-4.2,1.2-7.4,3.6-9.8c2.4-2.4,5.6-3.5,9.7-3.5
		c3.9,0,7,1.1,9.2,3.5s3.3,5.5,3.3,9.4c0,4.1-1.2,7.3-3.5,9.7C409.2,145.3,406,146.5,402,146.5z M402.3,141.9c2.3,0,4-0.7,5.2-2.2
		c1.2-1.5,1.8-3.6,1.8-6.4c0-2.8-0.6-4.9-1.8-6.3s-2.9-2.2-5.2-2.2c-2.2,0-4,0.8-5.3,2.3s-1.9,3.7-1.9,6.4s0.6,4.8,1.9,6.3
		C398.2,141.2,400,141.9,402.3,141.9z"/>
	<path class="st0" d="M434.4,113.2c-0.5-0.2-0.9-0.3-1.2-0.4c-0.4-0.1-0.8-0.1-1.2-0.1c-1.2,0-2.1,0.3-2.7,1c-0.6,0.7-0.9,1.7-0.9,3
		v4h5.8v4.5h-5.8v20.6h-5.7v-20.5h-4.3v-4.5h4.3v-4.3c0-2.5,0.8-4.6,2.5-6.1c1.6-1.5,3.8-2.2,6.5-2.2c0.8,0,1.6,0.1,2.2,0.2
		c0.6,0.1,1.3,0.3,1.9,0.5L434.4,113.2z"/>
	<path class="st0" d="M441,115.9c-1,0-1.9-0.3-2.6-1s-1-1.5-1-2.5s0.3-1.8,1-2.5s1.6-1,2.6-1c1.1,0,1.9,0.3,2.6,1s1,1.5,1,2.5
		s-0.3,1.8-1,2.5C442.9,115.6,442.1,115.9,441,115.9z M443.8,145.9h-5.7v-25.1h5.7V145.9z"/>
	<path class="st0" d="M457,142.8L457,142.8l-0.1,3.1h-5.7v-37.1h5.7V125h0.1c1-1.6,2.1-2.7,3.6-3.5c1.4-0.8,3-1.2,4.9-1.2
		c3.2,0,5.7,1.1,7.5,3.3s2.7,5.2,2.7,9.1c0,4.2-1,7.6-3.1,10.1s-4.8,3.8-8.3,3.8c-1.6,0-3-0.3-4.2-0.9
		C458.9,144.9,457.8,144,457,142.8z M456.9,132.3v3.1c0,1.9,0.6,3.5,1.7,4.7c1.2,1.3,2.6,1.9,4.4,1.9c2.1,0,3.8-0.8,5-2.5
		c1.2-1.6,1.8-3.9,1.8-6.9c0-2.5-0.6-4.4-1.7-5.8c-1.1-1.4-2.6-2.1-4.6-2.1s-3.6,0.7-4.9,2.1C457.5,128.3,456.9,130.1,456.9,132.3z"
		/>
	<path class="st0" d="M495.4,125.6c-0.3-0.1-0.6-0.1-0.9-0.2c-0.3,0-0.6-0.1-1-0.1c-2,0-3.6,0.8-4.7,2.3c-1.1,1.5-1.6,3.5-1.6,5.9
		v12.4h-5.7v-25.1h5.7v4.8h0.1c0.6-1.7,1.5-3,2.6-3.9s2.5-1.3,4-1.3c0.4,0,0.8,0,1.2,0.1c0.4,0,0.7,0.1,1,0.2L495.4,125.6z"/>
	<path class="st0" d="M511.2,146.5c-3.9,0-7-1.2-9.3-3.5s-3.4-5.5-3.4-9.4c0-4.2,1.2-7.4,3.6-9.8c2.4-2.4,5.6-3.5,9.7-3.5
		c3.9,0,7,1.1,9.2,3.5s3.3,5.5,3.3,9.4c0,4.1-1.2,7.3-3.5,9.7C518.4,145.3,515.2,146.5,511.2,146.5z M511.5,141.9
		c2.3,0,4-0.7,5.2-2.2s1.8-3.6,1.8-6.4c0-2.8-0.6-4.9-1.8-6.3s-2.9-2.2-5.2-2.2c-2.2,0-4,0.8-5.3,2.3s-1.9,3.7-1.9,6.4
		s0.6,4.8,1.9,6.3C507.4,141.2,509.2,141.9,511.5,141.9z"/>
	<path class="st0" d="M567.6,145.9h-5.7v-14.4c0-2.4-0.4-4.1-1.2-5.2c-0.8-1.1-2-1.6-3.7-1.6c-1.5,0-2.8,0.7-3.8,2s-1.5,3-1.5,4.9
		v14.2H546v-14.7c0-2.2-0.4-3.8-1.2-4.8c-0.8-1.1-2.1-1.6-3.7-1.6c-1.6,0-2.8,0.6-3.8,1.9c-1,1.3-1.5,3-1.5,5.1v14.1h-5.7v-25.1h5.7
		v3.9h0.1c0.8-1.4,2-2.6,3.3-3.3c1.4-0.8,2.9-1.2,4.6-1.2c1.7,0,3.2,0.4,4.5,1.3c1.2,0.9,2.2,2.1,2.7,3.7c0.9-1.6,2.1-2.9,3.5-3.7
		s3-1.2,4.9-1.2c2.7,0,4.8,0.8,6.2,2.5s2.1,4.2,2.1,7.6L567.6,145.9L567.6,145.9z"/>
	<path class="st0" d="M593.6,145.9h-5.5v-3.8H588c-0.8,1.5-1.9,2.5-3.2,3.3c-1.3,0.7-2.7,1.1-4.3,1.1c-2.3,0-4.2-0.7-5.7-2
		s-2.3-3.2-2.3-5.5c0-2.2,0.8-4,2.3-5.5c1.5-1.4,3.7-2.4,6.7-2.8l6.6-0.9v-0.5c0-1.7-0.4-2.9-1.3-3.7c-0.9-0.8-2.1-1.2-3.6-1.2
		c-1.2,0-2.4,0.2-3.6,0.6c-1.2,0.4-2.4,1.1-3.6,2l-2.5-3.4c1.5-1.2,3.1-2,4.8-2.6s3.4-0.8,5.4-0.8c3.4,0,5.9,0.8,7.5,2.5
		s2.5,4.1,2.5,7.5v15.7H593.6z M588.1,135.7v-2.1l-5.4,0.7c-1.6,0.2-2.8,0.7-3.6,1.3s-1.2,1.5-1.2,2.8c0,1.2,0.4,2.2,1.1,2.9
		c0.8,0.7,1.7,1,2.9,1c1.8,0,3.3-0.6,4.4-1.8C587.6,139.1,588.1,137.6,588.1,135.7z"/>
	<path class="st0" d="M614.3,145.5c-0.7,0.3-1.5,0.5-2.3,0.7c-0.8,0.1-1.7,0.2-2.6,0.2c-2.3,0-4.1-0.6-5.4-1.8
		c-1.2-1.2-1.9-3.1-1.9-5.5v-13.8h-4.2v-4.5h4.2v-6.1l5.7-1.7v7.8h6v4.5h-6v13.4c0,1.2,0.2,2.1,0.7,2.6s1.1,0.8,2.1,0.8
		c0.5,0,0.9-0.1,1.3-0.2c0.4-0.1,0.8-0.2,1.1-0.4L614.3,145.5z"/>
	<path class="st0" d="M629.9,146.5c-3.9,0-7-1.2-9.3-3.5s-3.4-5.5-3.4-9.4c0-4.2,1.2-7.4,3.6-9.8c2.4-2.4,5.6-3.5,9.7-3.5
		c3.9,0,7,1.1,9.2,3.5c2.2,2.3,3.3,5.5,3.3,9.4c0,4.1-1.2,7.3-3.5,9.7C637.1,145.3,633.9,146.5,629.9,146.5z M630.2,141.9
		c2.3,0,4-0.7,5.2-2.2s1.8-3.6,1.8-6.4c0-2.8-0.6-4.9-1.8-6.3s-2.9-2.2-5.2-2.2c-2.2,0-4,0.8-5.3,2.3s-1.9,3.7-1.9,6.4
		s0.6,4.8,1.9,6.3C626.2,141.2,627.9,141.9,630.2,141.9z"/>
	<path class="st0" d="M646.3,143.9l2.5-4c1,0.7,2,1.2,3.1,1.7c1.1,0.4,2.3,0.6,3.6,0.6c1.4,0,2.5-0.3,3.3-0.8s1.2-1.3,1.2-2.3
		c0-0.8-0.3-1.5-1-2c-0.6-0.5-1.7-1-3.3-1.4c-3.1-0.7-5.3-1.7-6.6-2.9s-1.9-2.8-1.9-4.8c0-2.3,0.9-4.1,2.6-5.6
		c1.8-1.4,4.1-2.2,6.9-2.2c1.4,0,2.8,0.2,4.1,0.6c1.3,0.4,2.5,1,3.8,1.8l-2.3,3.9c-1.1-0.7-2.1-1.2-3-1.5s-1.8-0.4-2.8-0.4
		c-1.3,0-2.4,0.2-3.1,0.7c-0.7,0.5-1.1,1.2-1.1,2.1c0,0.9,0.4,1.6,1.1,2.1s2,0.9,3.8,1.3c2.7,0.7,4.7,1.6,6,2.8s1.9,2.9,1.9,4.9
		c0,2.4-0.9,4.4-2.7,5.8c-1.8,1.4-4.2,2.2-7.2,2.2c-1.6,0-3.2-0.2-4.7-0.6C649.1,145.4,647.7,144.7,646.3,143.9z"/>
	<path class="st0" d="M691.6,134.8h-17.1c0.1,2.4,0.8,4.2,2.1,5.4s3.1,1.9,5.3,1.9c0.9,0,2-0.2,3.2-0.6s2.4-1,3.5-1.8l2.6,3.6
		c-1.6,1.1-3.1,1.9-4.7,2.5c-1.6,0.5-3.4,0.8-5.3,0.8c-3.9,0-6.9-1.1-9.1-3.4s-3.3-5.4-3.3-9.4s1.1-7.3,3.4-9.8
		c2.2-2.5,5.1-3.7,8.6-3.7c3.4,0,6,1.1,8,3.2c1.9,2.1,2.9,5.1,2.9,9v2.3H691.6z M686.1,130.9c0-2.2-0.5-3.8-1.4-4.9
		c-0.9-1.1-2.3-1.6-4-1.6c-1.6,0-3,0.6-4.1,1.8s-1.8,2.7-2.1,4.7H686.1z"/>
	<path class="st0" d="M694.6,143.9l2.5-4c1,0.7,2,1.2,3.1,1.7c1.1,0.4,2.3,0.6,3.6,0.6c1.4,0,2.5-0.3,3.3-0.8s1.2-1.3,1.2-2.3
		c0-0.8-0.3-1.5-1-2c-0.6-0.5-1.7-1-3.3-1.4c-3.1-0.7-5.3-1.7-6.6-2.9s-1.9-2.8-1.9-4.8c0-2.3,0.9-4.1,2.6-5.6
		c1.8-1.4,4.1-2.2,6.9-2.2c1.4,0,2.8,0.2,4.1,0.6c1.3,0.4,2.5,1,3.8,1.8l-2.3,3.9c-1.1-0.7-2.1-1.2-3-1.5s-1.8-0.4-2.8-0.4
		c-1.3,0-2.4,0.2-3.1,0.7c-0.7,0.5-1.1,1.2-1.1,2.1c0,0.9,0.4,1.6,1.1,2.1s2,0.9,3.8,1.3c2.7,0.7,4.7,1.6,6,2.8s1.9,2.9,1.9,4.9
		c0,2.4-0.9,4.4-2.7,5.8c-1.8,1.4-4.2,2.2-7.2,2.2c-1.6,0-3.2-0.2-4.7-0.6C697.4,145.4,696,144.7,694.6,143.9z"/>
	<path class="st0" d="M753.7,134.8h-17.1c0.1,2.4,0.8,4.2,2.1,5.4s3.1,1.9,5.3,1.9c0.9,0,2-0.2,3.2-0.6s2.4-1,3.5-1.8l2.6,3.6
		c-1.6,1.1-3.1,1.9-4.7,2.5c-1.6,0.5-3.4,0.8-5.3,0.8c-3.9,0-6.9-1.1-9.1-3.4s-3.3-5.4-3.3-9.4s1.1-7.3,3.4-9.8
		c2.2-2.5,5.1-3.7,8.6-3.7c3.4,0,6,1.1,8,3.2c1.9,2.1,2.9,5.1,2.9,9v2.3H753.7z M748.2,130.9c0-2.2-0.5-3.8-1.4-4.9
		c-0.9-1.1-2.3-1.6-4-1.6c-1.6,0-3,0.6-4.1,1.8s-1.8,2.7-2.1,4.7H748.2z"/>
	<path class="st0" d="M772.8,145.5c-0.7,0.3-1.5,0.5-2.3,0.7c-0.8,0.1-1.7,0.2-2.6,0.2c-2.3,0-4.1-0.6-5.4-1.8
		c-1.2-1.2-1.9-3.1-1.9-5.5v-13.8h-4.2v-4.5h4.2v-6.1l5.7-1.7v7.8h6v4.5h-6v13.4c0,1.2,0.2,2.1,0.7,2.6s1.1,0.8,2.1,0.8
		c0.5,0,0.9-0.1,1.3-0.2c0.4-0.1,0.8-0.2,1.1-0.4L772.8,145.5z"/>
	<path class="st0" d="M818.3,145.9h-6.7l-5.4-9.4c-1-1.7-1.8-2.8-2.6-3.4c-0.8-0.6-1.7-0.9-2.8-1h-3.2v13.8h-5.8v-35.1h11.4
		c3.6,0,6.5,0.8,8.5,2.5c2.1,1.6,3.1,4.1,3.1,7.3c0,2.4-0.7,4.5-2,6.2s-3.1,2.9-5.5,3.7v0.1c0.9,0.4,1.7,0.9,2.4,1.7s1.4,1.7,2,2.7
		L818.3,145.9z M797.6,115.5v11.9h4.6c1.9,0,3.5-0.6,4.7-1.8s1.8-2.7,1.8-4.5c0-1.7-0.5-3.1-1.6-4.1s-2.7-1.5-4.8-1.5L797.6,115.5
		L797.6,115.5z"/>
	<path class="st0" d="M842.1,134.8H825c0.1,2.4,0.8,4.2,2.1,5.4s3.1,1.9,5.3,1.9c0.9,0,2-0.2,3.2-0.6s2.4-1,3.5-1.8l2.6,3.6
		c-1.6,1.1-3.1,1.9-4.7,2.5c-1.6,0.5-3.4,0.8-5.3,0.8c-3.9,0-6.9-1.1-9.1-3.4s-3.3-5.4-3.3-9.4s1.1-7.3,3.4-9.8
		c2.2-2.5,5.1-3.7,8.6-3.7c3.4,0,6,1.1,8,3.2c1.9,2.1,2.9,5.1,2.9,9v2.3H842.1z M836.6,130.9c0-2.2-0.5-3.8-1.4-4.9
		c-0.9-1.1-2.3-1.6-4-1.6c-1.6,0-3,0.6-4.1,1.8s-1.8,2.7-2.1,4.7H836.6z"/>
	<path class="st0" d="M866.3,144.3c-1.2,0.8-2.5,1.3-3.7,1.6s-2.6,0.5-4,0.5c-3.9,0-6.9-1.1-9.3-3.4c-2.3-2.3-3.5-5.3-3.5-9.2
		c0-4.2,1.2-7.5,3.6-10c2.4-2.5,5.6-3.7,9.7-3.7c1.4,0,2.7,0.2,3.9,0.5s2.4,0.8,3.6,1.5l-2.2,4c-0.8-0.5-1.7-0.8-2.5-1
		s-1.7-0.3-2.7-0.3c-2.4,0-4.3,0.8-5.6,2.4c-1.3,1.6-2,3.7-2,6.3c0,2.7,0.7,4.9,2.1,6.3c1.4,1.5,3.2,2.2,5.3,2.2
		c0.7,0,1.4-0.1,2.3-0.4c0.8-0.2,1.7-0.6,2.6-1.1L866.3,144.3z"/>
	<path class="st0" d="M893.9,145.9h-7.3l-9.7-12.2h-0.1v12.2h-5.7v-37.1h5.7v23.5h0.1l9.1-11.5h7.1l-10.5,12L893.9,145.9z"/>
	<path class="st0" d="M897.4,145.9v-37.1h5.7v37.1H897.4z"/>
	<path class="st0" d="M913.4,115.9c-1,0-1.9-0.3-2.6-1s-1-1.5-1-2.5s0.3-1.8,1-2.5s1.6-1,2.6-1c1.1,0,1.9,0.3,2.6,1
		c0.7,0.7,1,1.5,1,2.5s-0.3,1.8-1,2.5C915.4,115.6,914.5,115.9,913.4,115.9z M916.3,145.9h-5.7v-25.1h5.7V145.9z"/>
	<path class="st0" d="M946,145.9h-5.7v-14.1c0-2.3-0.4-4.1-1.3-5.3c-0.8-1.2-2.1-1.8-3.8-1.8s-3.1,0.6-4.2,1.9
		c-1.1,1.3-1.7,2.9-1.7,4.9v14.3h-5.7v-25.1h5.7v4.1h0.1c0.9-1.6,2.1-2.7,3.4-3.5c1.4-0.8,2.9-1.2,4.7-1.2c2.7,0,4.8,0.9,6.3,2.6
		c1.4,1.7,2.1,4.3,2.1,7.7L946,145.9L946,145.9z"/>
	<path class="st0" d="M975.8,143.9c0,4.3-1.2,7.7-3.6,10.1c-2.4,2.5-5.8,3.7-10.2,3.7c-1.7,0-3.4-0.2-4.9-0.5s-3-0.8-4.6-1.6
		l1.8-4.1c1.3,0.6,2.5,1,3.7,1.2s2.5,0.4,4,0.4c2.6,0,4.6-0.7,6-2.2s2.1-3.6,2.1-6.3v-2.8H970c-0.9,1.5-2.1,2.7-3.4,3.4
		c-1.4,0.8-3,1.1-4.8,1.1c-3.2,0-5.7-1.1-7.6-3.4s-2.8-5.2-2.8-9c0-4.2,1-7.5,3.1-10.1c2.1-2.5,4.9-3.8,8.3-3.8c1.6,0,3,0.3,4.2,1
		c1.2,0.6,2.2,1.6,3,2.9h0.1v-3.2h5.7L975.8,143.9L975.8,143.9z M970.1,134.2v-2.9c0-1.8-0.6-3.4-1.7-4.6c-1.2-1.3-2.6-1.9-4.4-1.9
		c-2.1,0-3.8,0.8-5,2.3s-1.8,3.8-1.8,6.8c0,2.6,0.6,4.6,1.7,6s2.7,2.1,4.7,2.1s3.5-0.7,4.8-2.1S970.1,136.5,970.1,134.2z"/>
	<path class="st0" d="M1005.5,145.9h-5.7v-14.4c0-2.3-0.4-4-1.2-5.1c-0.8-1.1-2.1-1.7-3.8-1.7s-3.1,0.6-4.2,1.9
		c-1.1,1.3-1.7,2.9-1.7,4.9v14.3h-5.7v-37.1h5.7v16h0.1c0.9-1.5,2.1-2.7,3.4-3.4c1.3-0.8,2.9-1.1,4.6-1.1c2.8,0,4.9,0.9,6.4,2.6
		c1.4,1.7,2.1,4.3,2.1,7.7L1005.5,145.9L1005.5,145.9z"/>
	<path class="st0" d="M1031.5,145.9h-5.5v-3.8h-0.1c-0.8,1.5-1.9,2.5-3.2,3.3c-1.3,0.7-2.7,1.1-4.3,1.1c-2.3,0-4.2-0.7-5.7-2
		s-2.3-3.2-2.3-5.5c0-2.2,0.8-4,2.3-5.5s3.7-2.4,6.7-2.8l6.6-0.9v-0.5c0-1.7-0.4-2.9-1.3-3.7s-2.1-1.2-3.6-1.2
		c-1.2,0-2.4,0.2-3.6,0.6c-1.2,0.4-2.4,1.1-3.6,2l-2.5-3.4c1.5-1.2,3.1-2,4.8-2.6s3.4-0.8,5.4-0.8c3.4,0,5.9,0.8,7.5,2.5
		s2.5,4.1,2.5,7.5v15.7H1031.5z M1026.1,135.7v-2.1l-5.4,0.7c-1.6,0.2-2.8,0.7-3.6,1.3s-1.2,1.5-1.2,2.8c0,1.2,0.4,2.2,1.1,2.9
		c0.8,0.7,1.7,1,2.9,1c1.8,0,3.3-0.6,4.4-1.8C1025.5,139.1,1026.1,137.6,1026.1,135.7z"/>
	<path class="st0" d="M1060.5,145.9h-5.7V142h-0.1c-0.9,1.5-2,2.6-3.3,3.4c-1.3,0.8-2.8,1.1-4.5,1.1c-2.9,0-5.1-0.9-6.6-2.6
		c-1.5-1.8-2.2-4.4-2.2-8v-15.1h5.7v14.4c0,2.2,0.4,3.9,1.3,5s2.2,1.7,3.9,1.7c1.7,0,3.1-0.6,4.2-1.8s1.6-2.9,1.6-4.9v-14.4h5.7
		V145.9z"/>
	<path class="st0" d="M1065.4,143.9l2.5-4c1,0.7,2,1.2,3.1,1.7c1.1,0.4,2.3,0.6,3.6,0.6c1.4,0,2.5-0.3,3.3-0.8s1.2-1.3,1.2-2.3
		c0-0.8-0.3-1.5-1-2c-0.6-0.5-1.7-1-3.3-1.4c-3.1-0.7-5.3-1.7-6.6-2.9c-1.3-1.2-1.9-2.8-1.9-4.8c0-2.3,0.9-4.1,2.6-5.6
		c1.8-1.4,4.1-2.2,6.9-2.2c1.4,0,2.8,0.2,4.1,0.6c1.3,0.4,2.5,1,3.8,1.8l-2.3,3.9c-1.1-0.7-2.1-1.2-3-1.5s-1.8-0.4-2.8-0.4
		c-1.3,0-2.4,0.2-3.1,0.7s-1.1,1.2-1.1,2.1c0,0.9,0.4,1.6,1.1,2.1s2,0.9,3.8,1.3c2.7,0.7,4.7,1.6,6,2.8s1.9,2.9,1.9,4.9
		c0,2.4-0.9,4.4-2.7,5.8c-1.8,1.4-4.2,2.2-7.2,2.2c-1.6,0-3.2-0.2-4.7-0.6C1068.2,145.4,1066.8,144.7,1065.4,143.9z"/>
	<path class="st0" d="M1110.7,134.8h-17.1c0.1,2.4,0.8,4.2,2.1,5.4c1.3,1.2,3.1,1.9,5.3,1.9c0.9,0,2-0.2,3.2-0.6s2.4-1,3.5-1.8
		l2.6,3.6c-1.6,1.1-3.1,1.9-4.7,2.5c-1.6,0.5-3.4,0.8-5.3,0.8c-3.9,0-6.9-1.1-9.1-3.4s-3.3-5.4-3.3-9.4s1.1-7.3,3.4-9.8
		c2.2-2.5,5.1-3.7,8.6-3.7c3.4,0,6,1.1,8,3.2c1.9,2.1,2.9,5.1,2.9,9L1110.7,134.8L1110.7,134.8z M1105.2,130.9
		c0-2.2-0.5-3.8-1.4-4.9c-0.9-1.1-2.3-1.6-4-1.6c-1.6,0-3,0.6-4.1,1.8s-1.8,2.7-2.1,4.7H1105.2z"/>
	<path class="st0" d="M1138.5,145.9h-5.7v-14.1c0-2.3-0.4-4.1-1.3-5.3c-0.8-1.2-2.1-1.8-3.8-1.8s-3.1,0.6-4.2,1.9
		c-1.1,1.3-1.7,2.9-1.7,4.9v14.3h-5.7v-25.1h5.7v4.1h0.1c0.9-1.6,2.1-2.7,3.4-3.5c1.4-0.8,2.9-1.2,4.7-1.2c2.7,0,4.8,0.9,6.3,2.6
		c1.4,1.7,2.1,4.3,2.1,7.7L1138.5,145.9L1138.5,145.9z"/>
</g>
<path d="M47.3,11.4v38.9L19,24.4L4.9,11.7C3.1,9.9,0,11.2,0,13.8v77.5h19V52.6l28.3,25.6l14.1,12.3c1.9,1.7,4.9,0.3,4.9-2.2V11.4
	H47.3z"/>
<path d="M138.8,57.3h13.4c0.3-2.2,0.4-3.8,0.4-6.1c0-22.2-17.2-40.2-38.4-40.2S75.8,29,75.8,51.2S93,91.4,114.2,91.4
	c17.3,0,28.8-7,33.8-14.3l-12.9-14.2c-3.4,5.9-13.8,9.7-20.9,9.7c-9,0-16.4-6.2-18.9-15.3h37.1H138.8z M115.1,28.6
	c8.5,0,14.8,5.4,17.3,13.5H96C99.1,34,106.6,28.6,115.1,28.6z"/>
<path d="M205.6,11v49c0,6.8-5.6,12.4-12.4,12.4l0,0c-6.8,0-12.4-5.6-12.4-12.4V11H162c0,0,0,3.8,0,5.8V60
	c0,17.2,14.1,31.3,31.3,31.3l0,0c17.2,0,31.3-14.1,31.3-31.3V16.8c0-2,0-5.8,0-5.8H205.6z"/>
<path d="M300.9,91.3l-27.2-35c8.4-2.2,14.6-9.9,14.6-18.9V36c0-13.7-11.2-24.9-24.9-24.9h-9.1h-5.4h-13.7v80.2h19.1V61l23.1,30.3
	H300.9z M269.2,37.7c0,2.9-2.3,5.2-5.2,5.2h-9.7V30.7h9.7c2.9,0,5.2,2.3,5.2,5.2V37.7z"/>
<path d="M332.6,11c-22,0-39.9,18-39.9,40.2s17.8,40.2,39.9,40.2s39.9-18,39.9-40.2S354.6,11,332.6,11z M332.6,71.8
	c-11.9,0-20.4-8.8-20.4-21c0-12.1,8.5-21.1,20.4-21.1s20.6,9,20.6,21.1C353.2,63,344.5,71.8,332.6,71.8z"/>
<polygon points="425,31.7 425,11 398,11 382.6,11 379.3,11 379.3,91.3 398,91.3 398,60.6 419.2,60.6 419.2,41.6 398,41.6 398,31.7 
	"/>
<rect x="432.4" y="11" width="19.5" height="80.3"/>
<path d="M510.6,48.7c2.6-2.4,4.3-5.9,4.3-9.7v-4.1c0-13.1-10.7-23.8-23.8-23.8h-9.3h-14.1h-4.8v80.2h8.2h10.7h14.9
	c12.9,0,23.4-10.5,23.4-23.4V64C520.1,57.4,516.2,51.6,510.6,48.7z M490.9,30.8c3.3,0,6,2.7,6,6s-2.7,6-6,6h-9.1v-12H490.9z
	 M502,65.9c0,3.3-2.7,6-6,6h-14.2V59.7H496c3.3,0,6,2.7,6,6V65.9z"/>
<path d="M592.9,91.3l-27.1-35c8.4-2.2,14.6-9.9,14.6-18.9V36c0-13.7-11.2-24.9-24.9-24.9h-9.1H541h-13.7v80.2h19.1V61l23.1,30.3
	H592.9z M561.3,37.7c0,2.9-2.3,5.2-5.2,5.2h-9.7V30.7h9.7c2.9,0,5.2,2.3,5.2,5.2V37.7z"/>
<path d="M624.3,11c-22,0-39.9,18-39.9,40.2s17.8,40.2,39.9,40.2s39.9-18,39.9-40.2S646.3,11,624.3,11z M624.3,71.8
	c-11.9,0-20.4-8.8-20.4-21c0-12.1,8.5-21.1,20.4-21.1s20.6,9,20.6,21.1C644.9,63,636.2,71.8,624.3,71.8z"/>
<path d="M743.1,11.5l-15.2,16.8l-19.1,20.4l-19.2-20.4l-15.2-16.8c-1.3-1.4-3.7-0.5-3.7,1.4v78.4h18.9V54.8l17.7,17.3
	c0.8,0.8,2.1,0.8,2.9,0l17.7-17.3v36.5h18.9V12.9C746.7,11,744.4,10.1,743.1,11.5z"/>
<path d="M825.6,89.4l-36.7-76.2c-0.5-1.1-2.1-1.1-2.7,0l-36.7,76.2c-0.4,0.9,0.2,1.9,1.2,1.9h18.4l5.5-13.6h26l6,13.6h17.9
	C825.4,91.3,826.1,90.3,825.6,89.4z M781.7,62.5l5.7-11.8h0.4l5.7,11.8H781.7z"/>
<polygon points="869.3,10.8 851.3,10.8 832.8,10.8 814.5,10.8 814.5,31.8 832.8,31.8 832.8,91.3 851.3,91.3 851.3,31.8 869.3,31.8 
	"/>
<path d="M1125.6,35.6c-0.4-0.8-2-4.5-5.9-5.8c-0.8-0.3-4.6-1.5-6.9,0.7c-1.1,1.1-1.8,2.9-1.5,4.5c0.4,2.4,2.8,3.7,5.9,5.3
	c8.7,4.5,10.9,4.7,14.1,6.8c4.4,2.8,7.3,7,8.7,10.1c3.8,8.5,1.6,20.5-5.9,27.6c-10.3,9.6-26.2,5.7-34.6,0.8
	c-5.8-3.3-9.3-7.9-11.3-10.9c4.8-4,9.6-8.1,14.4-12.1c1,1.4,7.6,10.4,14.6,9.7c1.1-0.1,3.7-0.4,4.8-2.2c1.1-1.9,0.1-4.2,0-4.5
	c-1.3-3.1-4.7-3.8-9-5.6c0,0-5-2.1-10.7-6.2c-6.4-4.6-12.6-15.7-9.3-26.4c3.4-10.8,14.9-16.4,24.8-16.3c12.3,0.1,20,9.1,21.1,10.5
	C1134.4,26.3,1130,30.9,1125.6,35.6z"/>
<g>
	<path class="st1" d="M993.2,47.1c-3.2-2-5.4-2.3-14.1-6.8c-3.1-1.6-5.4-2.9-5.9-5.3c-0.3-1.6,0.4-3.4,1.5-4.5
		c2.4-2.2,6.1-1,6.9-0.7c3.9,1.3,5.5,5,5.9,5.8c4.4-4.7,8.8-9.4,13.2-14.1c-1.1-1.4-8.8-10.4-21.1-10.5c-9.9-0.1-21.4,5.6-24.8,16.3
		c-3.3,10.7,2.9,21.9,9.3,26.4c5.7,4,10.7,6.2,10.7,6.2c4.3,1.8,7.6,2.6,9,5.6c0.1,0.3,1.1,2.6,0,4.5s-3.7,2.1-4.8,2.2
		c-7,0.7-13.6-8.4-14.6-9.7c-4.8,4-9.6,8.1-14.4,12.1c2,3,5.5,7.5,11.3,10.9c8.4,4.9,24.3,8.8,34.6-0.8c7.5-7,9.7-19.1,5.9-27.6
		C1000.5,54.1,997.7,49.9,993.2,47.1z"/>
	<path class="st1" d="M1072.1,57.3h13.4c0.3-2.2,0.4-3.8,0.4-6.1c0-22.2-17.2-40.2-38.4-40.2s-38.4,18-38.4,40.2
		s17.2,40.2,38.4,40.2c17.3,0,28.8-7,33.8-14.3l-12.9-14.2c-3.4,5.9-13.8,9.7-20.9,9.7c-9,0-16.4-6.2-18.9-15.3h37.1H1072.1z
		 M1048.4,28.6c8.5,0,14.8,5.4,17.3,13.5h-36.4C1032.4,34,1039.9,28.6,1048.4,28.6z"/>
	<path class="st1" d="M909.8,11c-22,0-39.9,18-39.9,40.2s17.8,40.2,39.9,40.2c22,0,39.9-18,39.9-40.2S931.8,11,909.8,11z
		 M909.8,71.8c-11.9,0-20.4-8.8-20.4-21c0-12.1,8.5-21.1,20.4-21.1s20.6,9,20.6,21.1C930.4,63,921.7,71.8,909.8,71.8z"/>
</g>
<g>
	<path class="st2" d="M993.2,47.1c-3.2-2-5.4-2.3-14.1-6.8c-3.1-1.6-5.4-2.9-5.9-5.3c-0.3-1.6,0.4-3.4,1.5-4.5
		c2.4-2.2,6.1-1,6.9-0.7c3.9,1.3,5.5,5,5.9,5.8c4.4-4.7,8.8-9.4,13.2-14.1c-1.1-1.4-8.8-10.4-21.1-10.5c-9.9-0.1-21.4,5.6-24.8,16.3
		c-3.3,10.7,2.9,21.9,9.3,26.4c5.7,4,10.7,6.2,10.7,6.2c4.3,1.8,7.6,2.6,9,5.6c0.1,0.3,1.1,2.6,0,4.5s-3.7,2.1-4.8,2.2
		c-7,0.7-13.6-8.4-14.6-9.7c-4.8,4-9.6,8.1-14.4,12.1c2,3,5.5,7.5,11.3,10.9c8.4,4.9,24.3,8.8,34.6-0.8c7.5-7,9.7-19.1,5.9-27.6
		C1000.5,54.1,997.7,49.9,993.2,47.1z"/>
	<path class="st2" d="M1072.1,57.3h13.4c0.3-2.2,0.4-3.8,0.4-6.1c0-22.2-17.2-40.2-38.4-40.2s-38.4,18-38.4,40.2
		s17.2,40.2,38.4,40.2c17.3,0,28.8-7,33.8-14.3l-12.9-14.2c-3.4,5.9-13.8,9.7-20.9,9.7c-9,0-16.4-6.2-18.9-15.3h37.1H1072.1z
		 M1048.4,28.6c8.5,0,14.8,5.4,17.3,13.5h-36.4C1032.4,34,1039.9,28.6,1048.4,28.6z"/>
	<path class="st2" d="M909.8,11c-22,0-39.9,18-39.9,40.2s17.8,40.2,39.9,40.2c22,0,39.9-18,39.9-40.2S931.8,11,909.8,11z
		 M909.8,71.8c-11.9,0-20.4-8.8-20.4-21c0-12.1,8.5-21.1,20.4-21.1s20.6,9,20.6,21.1C930.4,63,921.7,71.8,909.8,71.8z"/>
</g>
<g>
	<path class="st3" d="M993.2,47.1c-3.2-2-5.4-2.3-14.1-6.8c-3.1-1.6-5.4-2.9-5.9-5.3c-0.3-1.6,0.4-3.4,1.5-4.5
		c2.4-2.2,6.1-1,6.9-0.7c3.9,1.3,5.5,5,5.9,5.8c4.4-4.7,8.8-9.4,13.2-14.1c-1.1-1.4-8.8-10.4-21.1-10.5c-9.9-0.1-21.4,5.6-24.8,16.3
		c-3.3,10.7,2.9,21.9,9.3,26.4c5.7,4,10.7,6.2,10.7,6.2c4.3,1.8,7.6,2.6,9,5.6c0.1,0.3,1.1,2.6,0,4.5s-3.7,2.1-4.8,2.2
		c-7,0.7-13.6-8.4-14.6-9.7c-4.8,4-9.6,8.1-14.4,12.1c2,3,5.5,7.5,11.3,10.9c8.4,4.9,24.3,8.8,34.6-0.8c7.5-7,9.7-19.1,5.9-27.6
		C1000.5,54.1,997.7,49.9,993.2,47.1z"/>
	<path class="st3" d="M1072.1,57.3h13.4c0.3-2.2,0.4-3.8,0.4-6.1c0-22.2-17.2-40.2-38.4-40.2s-38.4,18-38.4,40.2
		s17.2,40.2,38.4,40.2c17.3,0,28.8-7,33.8-14.3l-12.9-14.2c-3.4,5.9-13.8,9.7-20.9,9.7c-9,0-16.4-6.2-18.9-15.3h37.1H1072.1z
		 M1048.4,28.6c8.5,0,14.8,5.4,17.3,13.5h-36.4C1032.4,34,1039.9,28.6,1048.4,28.6z"/>
	<path class="st3" d="M909.8,11c-22,0-39.9,18-39.9,40.2s17.8,40.2,39.9,40.2c22,0,39.9-18,39.9-40.2S931.8,11,909.8,11z M910.4,77
		c-14.6,0.4-26.7-10.7-26.5-25.2c0.2-13.8,11.6-27.2,25.9-27.1c14.2,0,25.6,13.2,25.7,27.1C935.7,65.8,924.4,76.7,910.4,77z"/>
</g>
<g>
	<ellipse cx="909.9" cy="51.2" rx="22.8" ry="23.3"/>
	<circle class="st0" cx="909.9" cy="51.2" r="18.9"/>
	<circle cx="909.6" cy="56.3" r="5.5"/>
	<circle cx="893.4" cy="49.8" r="5.5"/>
	<circle cx="925.7" cy="49.8" r="5.5"/>
	<circle cx="909.9" cy="40.9" r="5.5"/>
	<path d="M927,41.5h-34.3l0,0c0-6.5,5.3-11.8,11.8-11.8h10.6C921.7,29.7,927,35,927,41.5L927,41.5z"/>
	<path d="M898.9,60.8c-2.4,0-4.5,1.6-5.2,3.8l7.5,6.7c1.9-0.9,3.2-2.8,3.2-5C904.4,63.3,902,60.8,898.9,60.8z"/>
	<path d="M918.4,71l8.3-5.5c-0.4-2.7-2.7-4.7-5.4-4.7c-3,0-5.5,2.5-5.5,5.5C915.7,68.3,916.8,70.1,918.4,71z"/>
	<circle cx="900.3" cy="31.1" r="5.5"/>
	<circle cx="918.9" cy="31.1" r="5.5"/>
</g>
</svg>
